<mxfile host="app.diagrams.net" modified="2023-07-21T14:06:10.845Z" agent="Mozilla/5.0 (Windows NT 10.0; Win64; x64; rv:109.0) Gecko/20100101 Firefox/115.0" etag="kaE84jolqUiK5V9fePHd" version="21.6.3" type="github">
  <diagram id="Z6GCsgAM9sSRzU8jWJJ7" name="Page-1">
    <mxGraphModel dx="2049" dy="1106" grid="1" gridSize="10" guides="1" tooltips="1" connect="1" arrows="1" fold="1" page="1" pageScale="1" pageWidth="1100" pageHeight="850" math="0" shadow="0">
      <root>
        <mxCell id="0" />
        <mxCell id="1" parent="0" />
        <mxCell id="Hjk3yY-HpInA2s5WbHgZ-8" style="edgeStyle=orthogonalEdgeStyle;rounded=0;orthogonalLoop=1;jettySize=auto;html=1;exitX=0;exitY=0.5;exitDx=0;exitDy=0;entryX=0.75;entryY=0;entryDx=0;entryDy=0;" parent="1" source="Hjk3yY-HpInA2s5WbHgZ-1" target="Hjk3yY-HpInA2s5WbHgZ-3" edge="1">
          <mxGeometry relative="1" as="geometry" />
        </mxCell>
        <mxCell id="Hjk3yY-HpInA2s5WbHgZ-1" value="3.0 Proses Masuk Barang" style="ellipse;whiteSpace=wrap;html=1;aspect=fixed;" parent="1" vertex="1">
          <mxGeometry x="410" y="1005" width="150" height="150" as="geometry" />
        </mxCell>
        <mxCell id="Hjk3yY-HpInA2s5WbHgZ-6" style="edgeStyle=orthogonalEdgeStyle;rounded=0;orthogonalLoop=1;jettySize=auto;html=1;exitX=0;exitY=0.5;exitDx=0;exitDy=0;entryX=1;entryY=0.5;entryDx=0;entryDy=0;" parent="1" source="Hjk3yY-HpInA2s5WbHgZ-2" target="Hjk3yY-HpInA2s5WbHgZ-1" edge="1">
          <mxGeometry relative="1" as="geometry">
            <Array as="points">
              <mxPoint x="840" y="1080" />
              <mxPoint x="840" y="1080" />
            </Array>
          </mxGeometry>
        </mxCell>
        <mxCell id="Hjk3yY-HpInA2s5WbHgZ-7" value="&lt;div&gt;data_barang&lt;/div&gt;&lt;div&gt;data_gudang&lt;/div&gt;&lt;div&gt;data_supplier&lt;/div&gt;" style="edgeLabel;html=1;align=center;verticalAlign=middle;resizable=0;points=[];" parent="Hjk3yY-HpInA2s5WbHgZ-6" vertex="1" connectable="0">
          <mxGeometry x="0.1437" relative="1" as="geometry">
            <mxPoint as="offset" />
          </mxGeometry>
        </mxCell>
        <mxCell id="Hjk3yY-HpInA2s5WbHgZ-13" style="edgeStyle=orthogonalEdgeStyle;rounded=0;orthogonalLoop=1;jettySize=auto;html=1;exitX=0.5;exitY=1;exitDx=0;exitDy=0;entryX=1;entryY=1;entryDx=0;entryDy=0;" parent="1" source="Hjk3yY-HpInA2s5WbHgZ-2" target="Hjk3yY-HpInA2s5WbHgZ-4" edge="1">
          <mxGeometry relative="1" as="geometry">
            <Array as="points">
              <mxPoint x="900" y="1303" />
            </Array>
          </mxGeometry>
        </mxCell>
        <mxCell id="Hjk3yY-HpInA2s5WbHgZ-14" value="jumlah_keluar" style="edgeLabel;html=1;align=center;verticalAlign=middle;resizable=0;points=[];" parent="Hjk3yY-HpInA2s5WbHgZ-13" vertex="1" connectable="0">
          <mxGeometry x="-0.0688" y="-1" relative="1" as="geometry">
            <mxPoint as="offset" />
          </mxGeometry>
        </mxCell>
        <mxCell id="q7wcvHRCBRjbpm3dKiPZ-3" style="edgeStyle=orthogonalEdgeStyle;rounded=0;orthogonalLoop=1;jettySize=auto;html=1;exitX=0.75;exitY=0;exitDx=0;exitDy=0;entryX=1;entryY=0.5;entryDx=0;entryDy=0;" parent="1" source="Hjk3yY-HpInA2s5WbHgZ-2" target="q7wcvHRCBRjbpm3dKiPZ-2" edge="1">
          <mxGeometry relative="1" as="geometry" />
        </mxCell>
        <mxCell id="UQVWcAogFzvnXJMvjKfr-5" style="edgeStyle=orthogonalEdgeStyle;rounded=0;orthogonalLoop=1;jettySize=auto;html=1;exitX=0;exitY=0.25;exitDx=0;exitDy=0;entryX=1;entryY=0.5;entryDx=0;entryDy=0;" edge="1" parent="1" source="Hjk3yY-HpInA2s5WbHgZ-2" target="UQVWcAogFzvnXJMvjKfr-3">
          <mxGeometry relative="1" as="geometry">
            <Array as="points">
              <mxPoint x="760" y="1065" />
              <mxPoint x="760" y="905" />
            </Array>
          </mxGeometry>
        </mxCell>
        <mxCell id="UQVWcAogFzvnXJMvjKfr-10" value="data_kategori" style="edgeLabel;html=1;align=center;verticalAlign=middle;resizable=0;points=[];" vertex="1" connectable="0" parent="UQVWcAogFzvnXJMvjKfr-5">
          <mxGeometry x="0.4859" y="-1" relative="1" as="geometry">
            <mxPoint as="offset" />
          </mxGeometry>
        </mxCell>
        <mxCell id="UQVWcAogFzvnXJMvjKfr-6" style="edgeStyle=orthogonalEdgeStyle;rounded=0;orthogonalLoop=1;jettySize=auto;html=1;exitX=0;exitY=0;exitDx=0;exitDy=0;entryX=1;entryY=0.5;entryDx=0;entryDy=0;" edge="1" parent="1" source="Hjk3yY-HpInA2s5WbHgZ-2" target="UQVWcAogFzvnXJMvjKfr-2">
          <mxGeometry relative="1" as="geometry" />
        </mxCell>
        <mxCell id="UQVWcAogFzvnXJMvjKfr-11" value="data_gudang" style="edgeLabel;html=1;align=center;verticalAlign=middle;resizable=0;points=[];" vertex="1" connectable="0" parent="UQVWcAogFzvnXJMvjKfr-6">
          <mxGeometry x="0.5739" y="-2" relative="1" as="geometry">
            <mxPoint as="offset" />
          </mxGeometry>
        </mxCell>
        <mxCell id="UQVWcAogFzvnXJMvjKfr-8" style="edgeStyle=orthogonalEdgeStyle;rounded=0;orthogonalLoop=1;jettySize=auto;html=1;exitX=0.25;exitY=0;exitDx=0;exitDy=0;entryX=1;entryY=0.5;entryDx=0;entryDy=0;" edge="1" parent="1" source="Hjk3yY-HpInA2s5WbHgZ-2" target="UQVWcAogFzvnXJMvjKfr-1">
          <mxGeometry relative="1" as="geometry" />
        </mxCell>
        <mxCell id="UQVWcAogFzvnXJMvjKfr-12" value="data_supplier" style="edgeLabel;html=1;align=center;verticalAlign=middle;resizable=0;points=[];" vertex="1" connectable="0" parent="UQVWcAogFzvnXJMvjKfr-8">
          <mxGeometry x="0.6062" y="4" relative="1" as="geometry">
            <mxPoint as="offset" />
          </mxGeometry>
        </mxCell>
        <mxCell id="UQVWcAogFzvnXJMvjKfr-9" style="edgeStyle=orthogonalEdgeStyle;rounded=0;orthogonalLoop=1;jettySize=auto;html=1;exitX=0.5;exitY=0;exitDx=0;exitDy=0;entryX=1;entryY=0.5;entryDx=0;entryDy=0;" edge="1" parent="1" source="Hjk3yY-HpInA2s5WbHgZ-2" target="stu7WVIQXUIdbc0Hr7mn-1">
          <mxGeometry relative="1" as="geometry" />
        </mxCell>
        <mxCell id="UQVWcAogFzvnXJMvjKfr-13" value="data_barang" style="edgeLabel;html=1;align=center;verticalAlign=middle;resizable=0;points=[];" vertex="1" connectable="0" parent="UQVWcAogFzvnXJMvjKfr-9">
          <mxGeometry x="0.717" y="2" relative="1" as="geometry">
            <mxPoint as="offset" />
          </mxGeometry>
        </mxCell>
        <mxCell id="Hjk3yY-HpInA2s5WbHgZ-2" value="Staff Gudang" style="rounded=0;whiteSpace=wrap;html=1;" parent="1" vertex="1">
          <mxGeometry x="840" y="1050" width="120" height="60" as="geometry" />
        </mxCell>
        <mxCell id="Hjk3yY-HpInA2s5WbHgZ-9" style="edgeStyle=orthogonalEdgeStyle;rounded=0;orthogonalLoop=1;jettySize=auto;html=1;exitX=0.75;exitY=1;exitDx=0;exitDy=0;entryX=0;entryY=0.5;entryDx=0;entryDy=0;" parent="1" source="Hjk3yY-HpInA2s5WbHgZ-3" target="Hjk3yY-HpInA2s5WbHgZ-4" edge="1">
          <mxGeometry relative="1" as="geometry" />
        </mxCell>
        <mxCell id="Hjk3yY-HpInA2s5WbHgZ-10" value="jumlah_barang" style="edgeLabel;html=1;align=center;verticalAlign=middle;resizable=0;points=[];" parent="Hjk3yY-HpInA2s5WbHgZ-9" vertex="1" connectable="0">
          <mxGeometry x="0.3455" y="1" relative="1" as="geometry">
            <mxPoint as="offset" />
          </mxGeometry>
        </mxCell>
        <mxCell id="Hjk3yY-HpInA2s5WbHgZ-19" style="edgeStyle=orthogonalEdgeStyle;rounded=0;orthogonalLoop=1;jettySize=auto;html=1;exitX=0.25;exitY=1;exitDx=0;exitDy=0;entryX=0;entryY=0.5;entryDx=0;entryDy=0;" parent="1" source="Hjk3yY-HpInA2s5WbHgZ-3" target="Hjk3yY-HpInA2s5WbHgZ-5" edge="1">
          <mxGeometry relative="1" as="geometry" />
        </mxCell>
        <mxCell id="Hjk3yY-HpInA2s5WbHgZ-21" value="&lt;div&gt;barang_masuk&lt;/div&gt;" style="edgeLabel;html=1;align=center;verticalAlign=middle;resizable=0;points=[];" parent="Hjk3yY-HpInA2s5WbHgZ-19" vertex="1" connectable="0">
          <mxGeometry x="0.3691" y="-1" relative="1" as="geometry">
            <mxPoint as="offset" />
          </mxGeometry>
        </mxCell>
        <mxCell id="Hjk3yY-HpInA2s5WbHgZ-3" value="Data Barang Masuk" style="shape=partialRectangle;whiteSpace=wrap;html=1;left=0;right=0;fillColor=none;" parent="1" vertex="1">
          <mxGeometry x="150" y="1135" width="120" height="60" as="geometry" />
        </mxCell>
        <mxCell id="Hjk3yY-HpInA2s5WbHgZ-11" style="edgeStyle=orthogonalEdgeStyle;rounded=0;orthogonalLoop=1;jettySize=auto;html=1;exitX=1;exitY=0.5;exitDx=0;exitDy=0;entryX=0.25;entryY=1;entryDx=0;entryDy=0;" parent="1" source="Hjk3yY-HpInA2s5WbHgZ-4" target="Hjk3yY-HpInA2s5WbHgZ-2" edge="1">
          <mxGeometry relative="1" as="geometry">
            <mxPoint x="840" y="1130" as="targetPoint" />
            <Array as="points">
              <mxPoint x="870" y="1250" />
            </Array>
          </mxGeometry>
        </mxCell>
        <mxCell id="Hjk3yY-HpInA2s5WbHgZ-12" value="barang_tersedia" style="edgeLabel;html=1;align=center;verticalAlign=middle;resizable=0;points=[];" parent="Hjk3yY-HpInA2s5WbHgZ-11" vertex="1" connectable="0">
          <mxGeometry x="-0.1111" relative="1" as="geometry">
            <mxPoint as="offset" />
          </mxGeometry>
        </mxCell>
        <mxCell id="stu7WVIQXUIdbc0Hr7mn-23" style="edgeStyle=orthogonalEdgeStyle;rounded=0;orthogonalLoop=1;jettySize=auto;html=1;exitX=0.5;exitY=1;exitDx=0;exitDy=0;entryX=0;entryY=0.5;entryDx=0;entryDy=0;" parent="1" source="Hjk3yY-HpInA2s5WbHgZ-4" target="stu7WVIQXUIdbc0Hr7mn-20" edge="1">
          <mxGeometry relative="1" as="geometry" />
        </mxCell>
        <mxCell id="stu7WVIQXUIdbc0Hr7mn-24" value="barang_keluar" style="edgeLabel;html=1;align=center;verticalAlign=middle;resizable=0;points=[];" parent="stu7WVIQXUIdbc0Hr7mn-23" vertex="1" connectable="0">
          <mxGeometry x="0.2948" relative="1" as="geometry">
            <mxPoint as="offset" />
          </mxGeometry>
        </mxCell>
        <mxCell id="Hjk3yY-HpInA2s5WbHgZ-4" value="4.0 Proses Keluar Barang" style="ellipse;whiteSpace=wrap;html=1;aspect=fixed;" parent="1" vertex="1">
          <mxGeometry x="410" y="1175" width="150" height="150" as="geometry" />
        </mxCell>
        <mxCell id="Hjk3yY-HpInA2s5WbHgZ-18" style="edgeStyle=orthogonalEdgeStyle;rounded=0;orthogonalLoop=1;jettySize=auto;html=1;exitX=1;exitY=0.5;exitDx=0;exitDy=0;entryX=0.25;entryY=1;entryDx=0;entryDy=0;" parent="1" source="Hjk3yY-HpInA2s5WbHgZ-5" target="q7wcvHRCBRjbpm3dKiPZ-1" edge="1">
          <mxGeometry relative="1" as="geometry" />
        </mxCell>
        <mxCell id="Hjk3yY-HpInA2s5WbHgZ-20" value="&lt;div&gt;laporan_barang_masuk&lt;/div&gt;&lt;div&gt;laporan_barang_keluar&lt;/div&gt;&lt;div&gt;laporan_stok_barang&lt;/div&gt;&lt;div&gt;laporan_supplier&lt;br&gt;&lt;/div&gt;" style="edgeLabel;html=1;align=center;verticalAlign=middle;resizable=0;points=[];" parent="Hjk3yY-HpInA2s5WbHgZ-18" vertex="1" connectable="0">
          <mxGeometry x="-0.1417" relative="1" as="geometry">
            <mxPoint as="offset" />
          </mxGeometry>
        </mxCell>
        <mxCell id="Hjk3yY-HpInA2s5WbHgZ-5" value="5.0 Proses Report" style="ellipse;whiteSpace=wrap;html=1;aspect=fixed;" parent="1" vertex="1">
          <mxGeometry x="430" y="1460" width="150" height="150" as="geometry" />
        </mxCell>
        <mxCell id="q7wcvHRCBRjbpm3dKiPZ-4" style="edgeStyle=orthogonalEdgeStyle;rounded=0;orthogonalLoop=1;jettySize=auto;html=1;exitX=1;exitY=0.5;exitDx=0;exitDy=0;entryX=1;entryY=0.5;entryDx=0;entryDy=0;" parent="1" source="q7wcvHRCBRjbpm3dKiPZ-1" target="q7wcvHRCBRjbpm3dKiPZ-2" edge="1">
          <mxGeometry relative="1" as="geometry" />
        </mxCell>
        <mxCell id="q7wcvHRCBRjbpm3dKiPZ-6" value="&lt;div&gt;Username&lt;/div&gt;&lt;div&gt;Password&lt;br&gt;&lt;/div&gt;" style="edgeLabel;html=1;align=center;verticalAlign=middle;resizable=0;points=[];" parent="q7wcvHRCBRjbpm3dKiPZ-4" vertex="1" connectable="0">
          <mxGeometry x="0.5385" y="-1" relative="1" as="geometry">
            <mxPoint x="-77" y="1" as="offset" />
          </mxGeometry>
        </mxCell>
        <mxCell id="q7wcvHRCBRjbpm3dKiPZ-1" value="Manager Gudang" style="rounded=0;whiteSpace=wrap;html=1;" parent="1" vertex="1">
          <mxGeometry x="830" y="1335" width="120" height="60" as="geometry" />
        </mxCell>
        <mxCell id="q7wcvHRCBRjbpm3dKiPZ-2" value="1.0 Proses Login" style="ellipse;whiteSpace=wrap;html=1;aspect=fixed;" parent="1" vertex="1">
          <mxGeometry x="410" y="40" width="150" height="150" as="geometry" />
        </mxCell>
        <mxCell id="q7wcvHRCBRjbpm3dKiPZ-7" style="edgeStyle=orthogonalEdgeStyle;rounded=0;orthogonalLoop=1;jettySize=auto;html=1;exitX=1;exitY=0.5;exitDx=0;exitDy=0;entryX=0;entryY=0.5;entryDx=0;entryDy=0;" parent="1" source="q7wcvHRCBRjbpm3dKiPZ-5" target="q7wcvHRCBRjbpm3dKiPZ-2" edge="1">
          <mxGeometry relative="1" as="geometry" />
        </mxCell>
        <mxCell id="q7wcvHRCBRjbpm3dKiPZ-8" value="&lt;div&gt;username&lt;/div&gt;&lt;div&gt;password&lt;br&gt;&lt;/div&gt;" style="edgeLabel;html=1;align=center;verticalAlign=middle;resizable=0;points=[];" parent="q7wcvHRCBRjbpm3dKiPZ-7" vertex="1" connectable="0">
          <mxGeometry x="-0.0308" y="3" relative="1" as="geometry">
            <mxPoint as="offset" />
          </mxGeometry>
        </mxCell>
        <mxCell id="q7wcvHRCBRjbpm3dKiPZ-5" value="Admin" style="rounded=0;whiteSpace=wrap;html=1;" parent="1" vertex="1">
          <mxGeometry x="160" y="85" width="120" height="60" as="geometry" />
        </mxCell>
        <mxCell id="QPWgkwAui-Ok-JEsNZ_f-2" style="edgeStyle=orthogonalEdgeStyle;rounded=0;orthogonalLoop=1;jettySize=auto;html=1;exitX=1;exitY=0.5;exitDx=0;exitDy=0;entryX=0.5;entryY=1;entryDx=0;entryDy=0;" parent="1" source="QPWgkwAui-Ok-JEsNZ_f-1" target="q7wcvHRCBRjbpm3dKiPZ-2" edge="1">
          <mxGeometry relative="1" as="geometry" />
        </mxCell>
        <mxCell id="QPWgkwAui-Ok-JEsNZ_f-3" value="valid_user" style="edgeLabel;html=1;align=center;verticalAlign=middle;resizable=0;points=[];" parent="QPWgkwAui-Ok-JEsNZ_f-2" vertex="1" connectable="0">
          <mxGeometry x="-0.5451" y="2" relative="1" as="geometry">
            <mxPoint as="offset" />
          </mxGeometry>
        </mxCell>
        <mxCell id="QPWgkwAui-Ok-JEsNZ_f-1" value="Data User" style="shape=partialRectangle;whiteSpace=wrap;html=1;left=0;right=0;fillColor=none;" parent="1" vertex="1">
          <mxGeometry x="160" y="210" width="120" height="60" as="geometry" />
        </mxCell>
        <mxCell id="stu7WVIQXUIdbc0Hr7mn-11" style="edgeStyle=orthogonalEdgeStyle;rounded=0;orthogonalLoop=1;jettySize=auto;html=1;exitX=0;exitY=1;exitDx=0;exitDy=0;entryX=0.5;entryY=0;entryDx=0;entryDy=0;" parent="1" source="stu7WVIQXUIdbc0Hr7mn-1" target="Hjk3yY-HpInA2s5WbHgZ-3" edge="1">
          <mxGeometry relative="1" as="geometry" />
        </mxCell>
        <mxCell id="UQVWcAogFzvnXJMvjKfr-21" style="edgeStyle=orthogonalEdgeStyle;rounded=0;orthogonalLoop=1;jettySize=auto;html=1;exitX=1;exitY=0;exitDx=0;exitDy=0;entryX=0;entryY=0.5;entryDx=0;entryDy=0;" edge="1" parent="1" source="stu7WVIQXUIdbc0Hr7mn-1" target="stu7WVIQXUIdbc0Hr7mn-9">
          <mxGeometry relative="1" as="geometry" />
        </mxCell>
        <mxCell id="UQVWcAogFzvnXJMvjKfr-22" value="data_barang" style="edgeLabel;html=1;align=center;verticalAlign=middle;resizable=0;points=[];" vertex="1" connectable="0" parent="UQVWcAogFzvnXJMvjKfr-21">
          <mxGeometry x="-0.2761" y="5" relative="1" as="geometry">
            <mxPoint as="offset" />
          </mxGeometry>
        </mxCell>
        <mxCell id="stu7WVIQXUIdbc0Hr7mn-1" value="2.0 Proses Input Data Barang" style="ellipse;whiteSpace=wrap;html=1;aspect=fixed;" parent="1" vertex="1">
          <mxGeometry x="410" y="270" width="150" height="150" as="geometry" />
        </mxCell>
        <mxCell id="stu7WVIQXUIdbc0Hr7mn-13" style="edgeStyle=orthogonalEdgeStyle;rounded=0;orthogonalLoop=1;jettySize=auto;html=1;exitX=0;exitY=0.5;exitDx=0;exitDy=0;entryX=0;entryY=0;entryDx=0;entryDy=0;" parent="1" source="stu7WVIQXUIdbc0Hr7mn-2" target="Hjk3yY-HpInA2s5WbHgZ-5" edge="1">
          <mxGeometry relative="1" as="geometry">
            <Array as="points">
              <mxPoint x="100" y="330" />
              <mxPoint x="100" y="1482" />
            </Array>
          </mxGeometry>
        </mxCell>
        <mxCell id="UQVWcAogFzvnXJMvjKfr-15" value="data_supplier" style="edgeLabel;html=1;align=center;verticalAlign=middle;resizable=0;points=[];" vertex="1" connectable="0" parent="stu7WVIQXUIdbc0Hr7mn-13">
          <mxGeometry x="0.7576" y="-5" relative="1" as="geometry">
            <mxPoint as="offset" />
          </mxGeometry>
        </mxCell>
        <mxCell id="stu7WVIQXUIdbc0Hr7mn-2" value="Data Supplier" style="shape=partialRectangle;whiteSpace=wrap;html=1;left=0;right=0;fillColor=none;" parent="1" vertex="1">
          <mxGeometry x="160" y="300" width="120" height="60" as="geometry" />
        </mxCell>
        <mxCell id="stu7WVIQXUIdbc0Hr7mn-3" value="Data Kategori" style="shape=partialRectangle;whiteSpace=wrap;html=1;left=0;right=0;fillColor=none;" parent="1" vertex="1">
          <mxGeometry x="250" y="800" width="120" height="60" as="geometry" />
        </mxCell>
        <mxCell id="stu7WVIQXUIdbc0Hr7mn-4" value="Data Gudang" style="shape=partialRectangle;whiteSpace=wrap;html=1;left=0;right=0;fillColor=none;" parent="1" vertex="1">
          <mxGeometry x="250" y="600" width="120" height="60" as="geometry" />
        </mxCell>
        <mxCell id="stu7WVIQXUIdbc0Hr7mn-9" value="Data Barang" style="shape=partialRectangle;whiteSpace=wrap;html=1;left=0;right=0;fillColor=none;" parent="1" vertex="1">
          <mxGeometry x="660" y="210" width="120" height="60" as="geometry" />
        </mxCell>
        <mxCell id="stu7WVIQXUIdbc0Hr7mn-28" style="edgeStyle=orthogonalEdgeStyle;rounded=0;orthogonalLoop=1;jettySize=auto;html=1;exitX=0.5;exitY=1;exitDx=0;exitDy=0;entryX=0.547;entryY=-0.009;entryDx=0;entryDy=0;entryPerimeter=0;" parent="1" source="stu7WVIQXUIdbc0Hr7mn-20" target="Hjk3yY-HpInA2s5WbHgZ-5" edge="1">
          <mxGeometry relative="1" as="geometry" />
        </mxCell>
        <mxCell id="stu7WVIQXUIdbc0Hr7mn-29" value="barang_keluar" style="edgeLabel;html=1;align=center;verticalAlign=middle;resizable=0;points=[];" parent="stu7WVIQXUIdbc0Hr7mn-28" vertex="1" connectable="0">
          <mxGeometry x="0.0181" y="1" relative="1" as="geometry">
            <mxPoint as="offset" />
          </mxGeometry>
        </mxCell>
        <mxCell id="stu7WVIQXUIdbc0Hr7mn-20" value="Data Barang Keluar" style="shape=partialRectangle;whiteSpace=wrap;html=1;left=0;right=0;fillColor=none;" parent="1" vertex="1">
          <mxGeometry x="640" y="1360" width="120" height="60" as="geometry" />
        </mxCell>
        <mxCell id="UQVWcAogFzvnXJMvjKfr-16" style="edgeStyle=orthogonalEdgeStyle;rounded=0;orthogonalLoop=1;jettySize=auto;html=1;exitX=0;exitY=0.5;exitDx=0;exitDy=0;entryX=1;entryY=0.5;entryDx=0;entryDy=0;" edge="1" parent="1" source="UQVWcAogFzvnXJMvjKfr-1" target="stu7WVIQXUIdbc0Hr7mn-2">
          <mxGeometry relative="1" as="geometry" />
        </mxCell>
        <mxCell id="UQVWcAogFzvnXJMvjKfr-1" value="3.0 Proses Input Data Supplier" style="ellipse;whiteSpace=wrap;html=1;aspect=fixed;" vertex="1" parent="1">
          <mxGeometry x="410" y="470" width="150" height="150" as="geometry" />
        </mxCell>
        <mxCell id="UQVWcAogFzvnXJMvjKfr-17" style="edgeStyle=orthogonalEdgeStyle;rounded=0;orthogonalLoop=1;jettySize=auto;html=1;exitX=0;exitY=0.5;exitDx=0;exitDy=0;entryX=0.5;entryY=1;entryDx=0;entryDy=0;" edge="1" parent="1" source="UQVWcAogFzvnXJMvjKfr-2" target="stu7WVIQXUIdbc0Hr7mn-4">
          <mxGeometry relative="1" as="geometry" />
        </mxCell>
        <mxCell id="UQVWcAogFzvnXJMvjKfr-18" value="data_gudang" style="edgeLabel;html=1;align=center;verticalAlign=middle;resizable=0;points=[];" vertex="1" connectable="0" parent="UQVWcAogFzvnXJMvjKfr-17">
          <mxGeometry x="-0.181" y="-1" relative="1" as="geometry">
            <mxPoint as="offset" />
          </mxGeometry>
        </mxCell>
        <mxCell id="UQVWcAogFzvnXJMvjKfr-2" value="4.0 Proses Input Data Gudang" style="ellipse;whiteSpace=wrap;html=1;aspect=fixed;" vertex="1" parent="1">
          <mxGeometry x="410" y="650" width="150" height="150" as="geometry" />
        </mxCell>
        <mxCell id="UQVWcAogFzvnXJMvjKfr-19" style="edgeStyle=orthogonalEdgeStyle;rounded=0;orthogonalLoop=1;jettySize=auto;html=1;exitX=0;exitY=0.5;exitDx=0;exitDy=0;entryX=0.5;entryY=1;entryDx=0;entryDy=0;" edge="1" parent="1" source="UQVWcAogFzvnXJMvjKfr-3" target="stu7WVIQXUIdbc0Hr7mn-3">
          <mxGeometry relative="1" as="geometry" />
        </mxCell>
        <mxCell id="UQVWcAogFzvnXJMvjKfr-20" value="data_kategori" style="edgeLabel;html=1;align=center;verticalAlign=middle;resizable=0;points=[];" vertex="1" connectable="0" parent="UQVWcAogFzvnXJMvjKfr-19">
          <mxGeometry x="0.2473" y="2" relative="1" as="geometry">
            <mxPoint as="offset" />
          </mxGeometry>
        </mxCell>
        <mxCell id="UQVWcAogFzvnXJMvjKfr-3" value="5.0 Proses Input Data Kategori" style="ellipse;whiteSpace=wrap;html=1;aspect=fixed;" vertex="1" parent="1">
          <mxGeometry x="410" y="830" width="150" height="150" as="geometry" />
        </mxCell>
      </root>
    </mxGraphModel>
  </diagram>
</mxfile>
